

<svg version="1.1" id="레이어_1" xmlns="http://www.w3.org/2000/svg" xmlns:xlink="http://www.w3.org/1999/xlink" x="0px" y="0px" viewBox="0 0 500 500" style="enable-background:new 0 0 500 500" xml:space="preserve">
<path style="fill:#DC7317" d="M443.6376953,499.9998474H56.3522339C25.2516632,499.9998474,0,474.7585754,0,443.6375427V56.3624649
	C0,25.2414322,25.2516632,0,56.3522339,0h387.2854614C474.7687988,0,500,25.2414322,500,56.3624649v387.2750854
	C500,474.7585754,474.7687988,499.9998474,443.6376953,499.9998474"></path>
<polygon style="fill:#FFFFFF" points="107.9573441,422.2767334 107.9573441,173.7828827 80.4360046,173.7828827 
	116.0545273,77.7068787 185.0946045,77.7068787 185.0946045,422.2767334 "></polygon>
<path style="fill:#FFFFFF" d="M407.8252563,195.4180145h-31.5337219h-21.3318176h-67.9877319v-50.5135498h126.2995605V77.7007446
	H211.2166748v183.5595093h129.4459534v96.0553894h-54.5777283v-45.1085205h-74.8682251v49.4821167v20.4551392v32.4208069
	c0,4.2499084,3.4558411,7.6951904,7.7055817,7.6951904h31.1005707h21.7649841h83.1719055h21.3318176h31.5337219
	c4.2497559,0,7.6948853-3.445282,7.6948853-7.6951904v-32.4208069v-20.4551392V255.989151v-20.4551239V203.113205
	C415.5201416,198.8634644,412.0750122,195.4180145,407.8252563,195.4180145"></path>
<g>
</g>
<g>
</g>
<g>
</g>
<g>
</g>
<g>
</g>
<g>
</g>
</svg>
