

<svg version="1.1" id="레이어_1" xmlns="http://www.w3.org/2000/svg" xmlns:xlink="http://www.w3.org/1999/xlink" x="0px" y="0px" viewBox="0 0 500 500" style="enable-background:new 0 0 500 500" xml:space="preserve">
<path style="fill:#00964B" d="M443.6422119,499.9996948H56.3787804C25.2564278,499.9996948,0,474.7642517,0,443.6317139V56.3682899
	C0,25.2354412,25.2564278,0,56.3787804,0h387.2634277C474.7747192,0,500,25.2354412,500,56.3682899v387.2634277
	C500,474.7642517,474.7747192,499.9996948,443.6422119,499.9996948"></path>
<path style="fill:#FFFFFF" d="M144.9495697,378.2155457l-6.0640259-38.3221436l-44.3651962,0.0104675l-6.0640259,38.2907104
	l-57.1705322,0.0209656v-0.6877441L85.424469,121.3284683h62.5261078l54.1383667,256.2203064l0.0209808,0.6667786H144.9495697z
	 M116.6927719,204.0260162l-14.1287155,87.4388275h28.2466278L116.6927719,204.0260162z"></path>
<polygon style="fill:#FFFFFF" points="212.1667175,378.2130127 212.1667175,121.3157501 269.3372498,121.3157501 
	269.3372498,326.7627869 336.5830078,326.7627869 336.5830078,378.2130127 "></polygon>
<polygon style="fill:#FFFFFF" points="348.6932373,378.1987 348.6932373,121.311615 405.8637695,121.322113 
	405.8322754,326.7694702 473.1095276,326.7694702 473.1095276,378.2301941 "></polygon>
<g>
</g>
<g>
</g>
<g>
</g>
<g>
</g>
<g>
</g>
<g>
</g>
</svg>
