

<svg version="1.1" id="레이어_1" xmlns="http://www.w3.org/2000/svg" xmlns:xlink="http://www.w3.org/1999/xlink" x="0px" y="0px" viewBox="0 0 500 500" style="enable-background:new 0 0 500 500" xml:space="preserve">
<path style="fill:#EABC00" d="M443.6171875,500H56.3727303C25.241291,500,0,474.769104,0,443.6480408V56.3727303
	C0,25.241291,25.241291,0,56.3727303,0h387.2444458C474.7382507,0,500,25.241291,500,56.3727303v387.2752991
	C500,474.769104,474.7382507,500,443.6171875,500"></path>
<polygon style="fill:#FFFFFF" points="108.174942,422.2696228 108.174942,173.7655334 80.6639709,173.7655334 
	116.2929001,77.7203064 185.3018646,77.7203064 185.3018646,422.2696228 "></polygon>
<path style="fill:#FFFFFF" d="M407.596344,77.7190475h-32.8747864h-19.9908142h-82.7283936h-19.9599457h-32.9056396
	c-4.2497406,0-7.6951904,3.4454422-7.6951904,7.6951904v31.9876862v20.888298v51.2667389h75.3322601v-46.9033508h53.2266846
	v41.4775238L208.7286682,371.3113708v50.5345154h205.6858521V354.621521H304.371582l96.0451965-134.8410034
	c3.0119934-4.2188873,5.4050598-7.8909912,7.2207947-11.0578308c1.8154297-3.1564636,3.3110352-6.2200623,4.5179749-9.2528076
	c1.1861267-2.9915009,2.0216064-6.3025208,2.4654541-9.9129181c0.4640198-3.6103973,0.6702271-7.9633942,0.6702271-13.0797882
	v-38.1869507v-20.888298V85.414238C415.2912292,81.1644897,411.8564758,77.7190475,407.596344,77.7190475"></path>
<g>
</g>
<g>
</g>
<g>
</g>
<g>
</g>
<g>
</g>
<g>
</g>
</svg>
