

<svg version="1.1" id="레이어_1" xmlns="http://www.w3.org/2000/svg" xmlns:xlink="http://www.w3.org/1999/xlink" x="0px" y="0px" viewBox="0 0 500 500" style="enable-background:new 0 0 500 500" xml:space="preserve">
<path style="fill:#D61D28" d="M443.6195374,500H56.349926C25.2093945,500,0,474.7906799,0,443.650238V56.3705444
	C0,25.2404003,25.2093945,0,56.349926,0h387.2696228c31.1298218,0,56.3600159,25.2404003,56.3600159,56.3705444V443.650238
	C499.9795532,474.7906799,474.7493591,500,443.6195374,500"></path>
<polygon style="fill:#FFFFFF" points="105.9169159,422.2685852 105.9169159,173.7642822 78.396698,173.7642822 
	114.0449219,77.7128296 183.0198517,77.7128296 183.0198517,422.2685852 "></polygon>
<path style="fill:#FFFFFF" d="M416.6246948,281.1054382c-0.5880127-4.1981201-1.6400146-7.818573-3.1358643-10.8201904
	c-1.4955444-3.0016174-3.5378418-5.5699463-6.0960999-7.6742554c-2.5475159-2.1041565-5.7866516-4.1980896-9.6855469-6.3022766
	l-22.9917603-10.8201904l22.9917603-12.1921692c6.9110718-4.2084961,11.8002625-8.8603516,14.6575623-13.9765167
	c2.8465881-5.1059418,4.2599487-12.7698059,4.2599487-22.991745V85.4026642c0-4.2497253-3.4453125-7.69487-7.6948547-7.69487
	h-191.597702c-4.2495728,0-7.7052612,3.4451447-7.7052612,7.69487v110.9254303
	c0,9.8918915,1.4546204,17.5042877,4.2911224,22.7543945c2.8572845,5.2915039,7.7568817,10.0053711,14.647171,14.2138672
	l23.0018158,12.1921692l-23.0018158,10.8201904c-7.8393555,4.1981201-12.9967651,9.1801758-15.5550079,14.8635864
	c-2.5475311,5.7350159-3.8268127,14.1416321-3.8268127,25.2816467v65.2514954v20.4335327v32.4298706
	c0,4.2495728,3.4556885,7.7051086,7.7052612,7.7051086h192.9695129c4.239502,0,7.6844788-3.4555359,7.6844788-7.7051086v-32.4298706
	v-20.4335327V296.453949C417.5426025,290.4300842,417.2331848,285.3139343,416.6246948,281.1054382 M340.8728027,350.9883423
	c0,4.2497559-3.4556885,7.6845093-7.6948547,7.6845093h-39.6091614c-4.2391663,0-7.7049255-3.4347534-7.7049255-7.6845093
	v-68.9544678c0-4.2497253,3.4657593-7.6948547,7.7049255-7.6948547h39.6091614c4.2391663,0,7.6948547,3.4451294,7.6948547,7.6948547
	V350.9883423z M340.8728027,209.0771179c0,4.2497253-3.4556885,7.69487-7.6948547,7.69487h-39.6091614
	c-4.2391663,0-7.7049255-3.4451447-7.7049255-7.69487v-60.3003082c0-4.2393341,3.4657593-7.6844788,7.7049255-7.6844788h39.6091614
	c4.2391663,0,7.6948547,3.4451447,7.6948547,7.6844788V209.0771179z"></path>
<g>
</g>
<g>
</g>
<g>
</g>
<g>
</g>
<g>
</g>
<g>
</g>
</svg>
