<svg xmlns="http://www.w3.org/2000/svg" width="32" height="32" viewBox="0 0 32 32">
    <g fill="none" fill-rule="evenodd">
        <circle cx="16" cy="16" r="15" fill="#000" fill-opacity=".51"/>
        <path fill="#FFF" d="M16 30c7.732 0 14-6.268 14-14 0-7.731-6.268-14-14-14S2 8.269 2 16c0 7.732 6.268 14 14 14m0 2C7.163 32 0 24.837 0 16 0 7.164 7.163 0 16 0s16 7.164 16 16c0 8.837-7.163 16-16 16"/>
        <path fill="#FFF" d="M12 22.09V9.91a.5.5 0 0 1 .769-.421l9.568 6.089a.5.5 0 0 1 0 .844l-9.568 6.09A.5.5 0 0 1 12 22.09"/>
    </g>
</svg>
